 <svg width="100" height="82" viewBox="0 0 100 82" fill="#173E99" xmlns="http://www.w3.org/2000/svg">
  <path fill-rule="evenodd" clip-rule="evenodd" d="M8.80458 62.1915V55.0072C8.80458 54.8333 8.83105 54.338 8.88209 53.5174H8.85563C8.70816 53.9012 8.58527 54.1943 8.48696 54.3985L4.88535 62.1897H4.65847L1.04174 54.4438C0.924521 54.1962 0.812975 53.8785 0.708991 53.4929H0.67307C0.707101 53.9428 0.724116 54.3947 0.724116 54.839V62.1915H0.0302633V52.073H0.67307L4.4524 60.2234C4.47698 60.2688 4.50344 60.335 4.52991 60.4144C4.55827 60.4938 4.59041 60.5732 4.62066 60.6526C4.66793 60.7755 4.71708 60.9135 4.77002 61.0628H4.8135L4.89102 60.8379C4.89669 60.819 4.9761 60.594 5.12924 60.1648L8.85373 52.073H9.46818V62.1915H8.80458ZM18.6603 62.1915L17.5033 59.0399H13.1171L11.9581 62.1915H11.1886L15.0039 52.073H15.6656L19.4411 62.1915H18.6603ZM15.5578 53.7235C15.5049 53.5836 15.4633 53.4437 15.4293 53.3095C15.3952 53.1922 15.3612 53.0731 15.3234 52.9559H15.295C15.2156 53.266 15.1381 53.5193 15.0644 53.7122L13.3628 58.4046H17.2632L15.5578 53.7235ZM26.3381 62.1915L24.9882 59.229C24.7103 58.6164 24.4342 58.2042 24.1544 57.9963C23.8765 57.7864 23.5305 57.6824 23.1108 57.6824H21.8536V62.1915H21.1597V52.073H23.9692C24.8634 52.073 25.5648 52.3131 26.0753 52.7952C26.5858 53.2773 26.841 53.9126 26.841 54.7028C26.841 55.4326 26.6311 56.0433 26.2114 56.5311C25.7917 57.0207 25.2075 57.3327 24.4532 57.4764V57.5047C24.854 57.6635 25.2434 58.1513 25.6272 58.9643L27.1303 62.1897H26.3381V62.1915ZM21.8555 52.7101V57.0472H23.6005C24.3719 57.0472 24.9863 56.8449 25.4382 56.4403C25.8938 56.0357 26.1207 55.4799 26.1207 54.7728C26.1207 54.1262 25.9165 53.6233 25.5062 53.2565C25.096 52.8935 24.5118 52.7101 23.748 52.7101H21.8555ZM29.1872 62.1915V52.073H29.8811V62.1915H29.1872ZM39.6404 62.1915L33.6075 54.0128C33.4846 53.8483 33.3768 53.6857 33.2823 53.5193L33.1915 53.3794H33.1632C33.1726 53.5023 33.1783 53.6498 33.1783 53.8218V62.1915H32.4845V52.073H33.0176L39.0071 60.1799C39.1394 60.3576 39.285 60.5751 39.4381 60.8303H39.474C39.4495 60.4994 39.4381 60.2177 39.4381 59.9814V52.0711H40.132V62.1897H39.6404V62.1915ZM60.4106 62.1915V57.3346H54.614V62.1915H53.9202V52.073H54.614V56.6993H60.4106V52.073H61.1045V62.1915H60.4106ZM63.7041 62.1915V52.073H68.4287V52.7082H64.3979V56.7693H68.1413V57.4045H64.3979V61.5525H68.6632V62.1878H63.7041V62.1915ZM77.5207 62.1915L76.3636 59.0399H71.9774L70.8185 62.1915H70.049L73.8642 52.073H74.5259L78.3015 62.1915H77.5207ZM74.4163 53.7235C74.3633 53.5836 74.3218 53.4437 74.2877 53.3095C74.2537 53.1922 74.2197 53.0731 74.1818 52.9559H74.1535C74.0741 53.266 73.9966 53.5193 73.9228 53.7122L72.2213 58.4046H76.1216L74.4163 53.7235ZM80.0201 62.1915V52.073H80.7139V61.5563H84.7749V62.1915H80.0201ZM88.1742 52.7101H91.0952V52.0749H84.5575V52.7101H87.4804V62.1934H88.1742V52.7101ZM99.3061 62.1915V57.3346H93.5095V62.1915H92.8157V52.073H93.5095V56.6993H99.3061V52.073H100V62.1915H99.3061ZM42.7316 62.1915V52.073H47.4562V52.7082H43.4254V56.7693H47.1688V57.4045H43.4254V61.5525H47.6906V62.1878H42.7316V62.1915Z"></path>
  <path fill-rule="evenodd" clip-rule="evenodd" d="M35.9311 80.2866C34.9045 80.8633 33.8495 81.1525 32.7643 81.1525C31.4106 81.1525 30.3159 80.6931 29.4784 79.7743C28.6428 78.8573 28.2249 77.6492 28.2249 76.1575C28.2249 74.6507 28.6749 73.3954 29.5767 72.3895C30.4785 71.3819 31.6829 70.8771 33.1897 70.8771C34.0631 70.8771 34.9101 71.0529 35.7325 71.4045V72.1513C34.8307 71.7184 33.9516 71.501 33.0933 71.501C31.8417 71.501 30.8359 71.9282 30.0777 72.7828C29.3177 73.6392 28.9377 74.7301 28.9377 76.0573C28.9377 77.4526 29.295 78.5454 30.0097 79.3394C30.7243 80.1316 31.6866 80.5286 32.8985 80.5286C33.7947 80.5286 34.5812 80.3339 35.2542 79.9463V76.668H32.9118V76.0441H35.9348V80.2866H35.9311ZM43.3139 80.9805L41.9886 78.0708C41.7163 77.4696 41.4441 77.065 41.1699 76.8589C40.8977 76.6529 40.5574 76.5508 40.1452 76.5508H38.9107V80.9786H38.23V71.0434H40.9884C41.8657 71.0434 42.5539 71.2798 43.0568 71.7524C43.5578 72.2251 43.8092 72.8508 43.8092 73.626C43.8092 74.3425 43.6031 74.9419 43.191 75.4221C42.7788 75.9023 42.2041 76.2105 41.4649 76.3504V76.3787C41.8581 76.5357 42.24 77.0121 42.6162 77.8118L44.0928 80.9786H43.3139V80.9805ZM38.9125 71.6692V75.9269H40.6254C41.3817 75.9269 41.9848 75.7284 42.431 75.3313C42.8772 74.9343 43.1003 74.3879 43.1003 73.6941C43.1003 73.0607 42.8998 72.5654 42.4971 72.2062C42.0944 71.8488 41.5197 71.6692 40.771 71.6692H38.9125ZM50.1957 81.1525C48.791 81.1525 47.6717 80.6874 46.8361 79.7516C46.0004 78.8195 45.5845 77.6057 45.5845 76.1141C45.5845 74.5316 46.0118 73.2611 46.872 72.3083C47.7285 71.3554 48.8987 70.8771 50.3829 70.8771C51.7233 70.8771 52.8085 71.3365 53.6385 72.2515C54.4685 73.1685 54.8825 74.3709 54.8825 75.8588C54.8825 77.5036 54.4571 78.7968 53.6082 79.7383C52.7556 80.6818 51.6212 81.1525 50.1957 81.1525ZM50.2657 71.4991C49.1105 71.4991 48.1595 71.9169 47.4146 72.7525C46.6697 73.5901 46.2954 74.6847 46.2954 76.0403C46.2954 77.4072 46.647 78.4981 47.356 79.3092C48.0631 80.1202 49.0046 80.5248 50.1825 80.5248C51.4095 80.5248 52.3831 80.1221 53.0997 79.3205C53.8162 78.5189 54.1735 77.4015 54.1735 75.9685C54.1735 74.5637 53.8238 73.4672 53.1224 72.6807C52.4228 71.8942 51.4719 71.4991 50.2657 71.4991ZM63.6852 77.0102C63.6852 79.7705 62.5073 81.1525 60.1479 81.1525C57.9075 81.1525 56.7864 79.8234 56.7864 77.1614V71.0453H57.467V77.0688C57.467 79.3753 58.4047 80.5267 60.2802 80.5267C62.0952 80.5267 63.0027 79.4056 63.0027 77.1652V71.0453H63.6833V77.0102H63.6852ZM66.7934 76.9932V80.9824H66.1127V71.0472H68.51C69.5328 71.0472 70.3118 71.2835 70.8525 71.7562C71.3951 72.2288 71.6636 72.9208 71.6636 73.8302C71.6636 74.7528 71.3611 75.5091 70.758 76.1027C70.1549 76.6964 69.3098 76.9932 68.2245 76.9932H66.7934ZM66.7934 71.6692V76.3674H68.2075C69.1037 76.3674 69.7862 76.1537 70.2513 75.7265C70.7183 75.2992 70.9508 74.6923 70.9508 73.9115C70.9508 72.416 70.0944 71.6692 68.3796 71.6692H66.7934Z"></path>
  <path fill-rule="evenodd" clip-rule="evenodd" d="M0.00946045 22.7893C2.0948 22.7893 3.97218 23.6722 5.84955 24.557C7.58702 25.3757 9.32638 26.1924 11.1187 26.1924C12.9129 26.1924 14.6503 25.3738 16.3878 24.557C18.2652 23.6741 20.1426 22.7893 22.2279 22.7893C24.3132 22.7893 26.1906 23.6722 28.068 24.557C29.8055 25.3757 31.5448 26.1924 33.3371 26.1924C35.1313 26.1924 36.8688 25.3738 38.6062 24.557C40.4836 23.6741 42.361 22.7893 44.4463 22.7893C46.7926 22.7893 49.2201 23.8291 51.4378 24.7782C52.9938 25.4437 54.4401 26.0638 55.5726 26.1924C57.3611 26.1867 59.0929 25.3719 60.8266 24.557C62.7039 23.6741 64.5813 22.7893 66.6667 22.7893C68.752 22.7893 70.6294 23.6722 72.5068 24.557C74.2442 25.3757 75.9836 26.1924 77.7759 26.1924C79.5701 26.1924 81.3075 25.3738 83.045 24.557C84.9224 23.6741 86.7998 22.7893 88.8851 22.7893C90.9704 22.7893 92.8478 23.6722 94.7252 24.557C96.4627 25.3757 98.202 26.1924 99.9943 26.1924V27.5328C97.909 27.5328 96.0316 26.6499 94.1542 25.7651C92.4168 24.9465 90.6774 24.1297 88.8851 24.1297C87.0909 24.1297 85.3534 24.9484 83.616 25.7651C81.7386 26.648 79.8612 27.5328 77.7759 27.5328C75.6905 27.5328 73.8132 26.6499 71.9358 25.7651C70.1983 24.9465 68.459 24.1297 66.6667 24.1297C64.8725 24.1297 63.135 24.9484 61.3975 25.7651C59.5202 26.648 57.6428 27.5328 55.5574 27.5328H55.5442L55.4932 27.5272C54.1452 27.3892 52.5892 26.7237 50.9179 26.009C48.8212 25.1129 46.5279 24.1297 44.4501 24.1297C42.6559 24.1297 40.9185 24.9484 39.181 25.7651C37.3036 26.648 35.4262 27.5328 33.3409 27.5328C31.2556 27.5328 29.3782 26.6499 27.5008 25.7651C25.7633 24.9465 24.024 24.1297 22.2317 24.1297C20.4375 24.1297 18.7 24.9484 16.9626 25.7651C15.0852 26.648 13.2078 27.5328 11.1225 27.5328C9.03712 27.5328 7.15974 26.6499 5.28237 25.7651C3.5449 24.9465 1.80554 24.1297 0.0132418 24.1297V22.7893H0.00946045Z"></path>
  <path fill-rule="evenodd" clip-rule="evenodd" d="M0.00946045 26.7995C2.0948 26.7995 3.97218 27.6824 5.84955 28.5672C7.58702 29.3859 9.32638 30.2026 11.1187 30.2026C12.9129 30.2026 14.6503 29.384 16.3878 28.5672C18.2652 27.6843 20.1426 26.7995 22.2279 26.7995C24.3132 26.7995 26.1906 27.6824 28.068 28.5672C29.8055 29.3859 31.5448 30.2026 33.3371 30.2026C35.1313 30.2026 36.8688 29.384 38.6062 28.5672C40.4836 27.6843 42.361 26.7995 44.4463 26.7995C46.7926 26.7995 49.2201 27.8394 51.4378 28.7884C52.9938 29.4539 54.4401 30.074 55.5726 30.2026C57.3611 30.1969 59.0929 29.3821 60.8266 28.5672C62.7039 27.6843 64.5813 26.7995 66.6667 26.7995C68.752 26.7995 70.6294 27.6824 72.5068 28.5672C74.2442 29.3859 75.9836 30.2026 77.7759 30.2026C79.5701 30.2026 81.3075 29.384 83.045 28.5672C84.9224 27.6843 86.7998 26.7995 88.8851 26.7995C90.9704 26.7995 92.8478 27.6824 94.7252 28.5672C96.4627 29.3859 98.202 30.2026 99.9943 30.2026V31.543C97.909 31.543 96.0316 30.6601 94.1542 29.7753C92.4168 28.9567 90.6774 28.14 88.8851 28.14C87.0909 28.14 85.3534 28.9586 83.616 29.7753C81.7386 30.6582 79.8612 31.543 77.7759 31.543C75.6905 31.543 73.8132 30.6601 71.9358 29.7753C70.1983 28.9567 68.459 28.14 66.6667 28.14C64.8725 28.14 63.135 28.9586 61.3975 29.7753C59.5202 30.6582 57.6428 31.543 55.5574 31.543H55.5442L55.4932 31.5374C54.1452 31.3994 52.5892 30.7339 50.9179 30.0192C48.8212 29.1231 46.5279 28.14 44.4501 28.14C42.6559 28.14 40.9185 28.9586 39.181 29.7753C37.3036 30.6582 35.4262 31.543 33.3409 31.543C31.2556 31.543 29.3782 30.6601 27.5008 29.7753C25.7633 28.9567 24.024 28.14 22.2317 28.14C20.4375 28.14 18.7 28.9586 16.9626 29.7753C15.0852 30.6582 13.2078 31.543 11.1225 31.543C9.03712 31.543 7.15974 30.6601 5.28237 29.7753C3.5449 28.9567 1.80554 28.14 0.0132418 28.14V26.7995H0.00946045Z"></path>
  <path fill-rule="evenodd" clip-rule="evenodd" d="M0.00946045 30.8093C2.0948 30.8093 3.97218 31.6922 5.84955 32.577C7.58702 33.3957 9.32638 34.2124 11.1187 34.2124C12.9129 34.2124 14.6503 33.3938 16.3878 32.577C18.2652 31.6941 20.1426 30.8093 22.2279 30.8093C24.3132 30.8093 26.1906 31.6922 28.068 32.577C29.8055 33.3957 31.5448 34.2124 33.3371 34.2124C35.1313 34.2124 36.8688 33.3938 38.6062 32.577C40.4836 31.6941 42.361 30.8093 44.4463 30.8093C46.7926 30.8093 49.2201 31.8492 51.4378 32.7982C52.9938 33.4637 54.4401 34.0839 55.5726 34.2124C57.3611 34.2067 59.0929 33.3919 60.8266 32.577C62.7039 31.6941 64.5813 30.8093 66.6667 30.8093C68.752 30.8093 70.6294 31.6922 72.5068 32.577C74.2442 33.3957 75.9836 34.2124 77.7759 34.2124C79.5701 34.2124 81.3075 33.3938 83.045 32.577C84.9224 31.6941 86.7998 30.8093 88.8851 30.8093C90.9704 30.8093 92.8478 31.6922 94.7252 32.577C96.4627 33.3957 98.202 34.2124 99.9943 34.2124V35.5529C97.909 35.5529 96.0316 34.6699 94.1542 33.7851C92.4168 32.9665 90.6774 32.1498 88.8851 32.1498C87.0909 32.1498 85.3534 32.9684 83.616 33.7851C81.7386 34.668 79.8612 35.5529 77.7759 35.5529C75.6905 35.5529 73.8132 34.6699 71.9358 33.7851C70.1983 32.9665 68.459 32.1498 66.6667 32.1498C64.8725 32.1498 63.135 32.9684 61.3975 33.7851C59.5202 34.668 57.6428 35.5529 55.5574 35.5529H55.5442L55.4932 35.5472C54.1452 35.4092 52.5892 34.7437 50.9179 34.029C48.8212 33.1329 46.5279 32.1498 44.4501 32.1498C42.6559 32.1498 40.9185 32.9684 39.181 33.7851C37.3036 34.668 35.4262 35.5529 33.3409 35.5529C31.2556 35.5529 29.3782 34.6699 27.5008 33.7851C25.7633 32.9665 24.024 32.1498 22.2317 32.1498C20.4375 32.1498 18.7 32.9684 16.9626 33.7851C15.0852 34.668 13.2078 35.5529 11.1225 35.5529C9.03712 35.5529 7.15974 34.6699 5.28237 33.7851C3.5449 32.9665 1.80554 32.1498 0.0132418 32.1498V30.8093H0.00946045Z"></path>
  <path fill-rule="evenodd" clip-rule="evenodd" d="M0.00946045 34.8193C2.0948 34.8193 3.97218 35.7022 5.84955 36.587C7.58702 37.4057 9.32638 38.2224 11.1187 38.2224C12.9129 38.2224 14.6503 37.4038 16.3878 36.587C18.2652 35.7041 20.1426 34.8193 22.2279 34.8193C24.3132 34.8193 26.1906 35.7022 28.068 36.587C29.8055 37.4057 31.5448 38.2224 33.3371 38.2224C35.1313 38.2224 36.8688 37.4038 38.6062 36.587C40.4836 35.7041 42.361 34.8193 44.4463 34.8193C46.7926 34.8193 49.2201 35.8592 51.4378 36.8082C52.9938 37.4737 54.4401 38.0939 55.5726 38.2224C57.3611 38.2168 59.0929 37.4019 60.8266 36.587C62.7039 35.7041 64.5813 34.8193 66.6667 34.8193C68.752 34.8193 70.6294 35.7022 72.5068 36.587C74.2442 37.4057 75.9836 38.2224 77.7759 38.2224C79.5701 38.2224 81.3075 37.4038 83.045 36.587C84.9224 35.7041 86.7998 34.8193 88.8851 34.8193C90.9704 34.8193 92.8478 35.7022 94.7252 36.587C96.4627 37.4057 98.202 38.2224 99.9943 38.2224V39.5629C97.909 39.5629 96.0316 38.6799 94.1542 37.7951C92.4168 36.9765 90.6774 36.1598 88.8851 36.1598C87.0909 36.1598 85.3534 36.9784 83.616 37.7951C81.7386 38.6781 79.8612 39.5629 77.7759 39.5629C75.6905 39.5629 73.8132 38.6799 71.9358 37.7951C70.1983 36.9765 68.459 36.1598 66.6667 36.1598C64.8725 36.1598 63.135 36.9784 61.3975 37.7951C59.5202 38.6781 57.6428 39.5629 55.5574 39.5629H55.5442L55.4932 39.5572C54.1452 39.4192 52.5892 38.7537 50.9179 38.039C48.8212 37.1429 46.5279 36.1598 44.4501 36.1598C42.6559 36.1598 40.9185 36.9784 39.181 37.7951C37.3036 38.6781 35.4262 39.5629 33.3409 39.5629C31.2556 39.5629 29.3782 38.6799 27.5008 37.7951C25.7633 36.9765 24.024 36.1598 22.2317 36.1598C20.4375 36.1598 18.7 36.9784 16.9626 37.7951C15.0852 38.6781 13.2078 39.5629 11.1225 39.5629C9.03712 39.5629 7.15974 38.6799 5.28237 37.7951C3.5449 36.9765 1.80554 36.1598 0.0132418 36.1598V34.8193H0.00946045Z"></path>
  <path fill-rule="evenodd" clip-rule="evenodd" d="M0.00946045 38.8293C2.0948 38.8293 3.97218 39.7122 5.84955 40.5971C7.58702 41.4157 9.32638 42.2324 11.1187 42.2324C12.9129 42.2324 14.6503 41.4138 16.3878 40.5971C18.2652 39.7141 20.1426 38.8293 22.2279 38.8293C24.3132 38.8293 26.1906 39.7122 28.068 40.5971C29.8055 41.4157 31.5448 42.2324 33.3371 42.2324C35.1313 42.2324 36.8688 41.4138 38.6062 40.5971C40.4836 39.7141 42.361 38.8293 44.4463 38.8293C46.7926 38.8293 49.2201 39.8692 51.4378 40.8183C52.9938 41.4837 54.4401 42.1039 55.5726 42.2324C57.3611 42.2268 59.0929 41.4119 60.8266 40.5971C62.7039 39.7141 64.5813 38.8293 66.6667 38.8293C68.752 38.8293 70.6294 39.7122 72.5068 40.5971C74.2442 41.4157 75.9836 42.2324 77.7759 42.2324C79.5701 42.2324 81.3075 41.4138 83.045 40.5971C84.9224 39.7141 86.7998 38.8293 88.8851 38.8293C90.9704 38.8293 92.8478 39.7122 94.7252 40.5971C96.4627 41.4157 98.202 42.2324 99.9943 42.2324V43.5729C97.909 43.5729 96.0316 42.69 94.1542 41.8051C92.4168 40.9865 90.6774 40.1698 88.8851 40.1698C87.0909 40.1698 85.3534 40.9884 83.616 41.8051C81.7386 42.6881 79.8612 43.5729 77.7759 43.5729C75.6905 43.5729 73.8132 42.69 71.9358 41.8051C70.1983 40.9865 68.459 40.1698 66.6667 40.1698C64.8725 40.1698 63.135 40.9884 61.3975 41.8051C59.5202 42.6881 57.6428 43.5729 55.5574 43.5729H55.5442L55.4932 43.5672C54.1452 43.4292 52.5892 42.7637 50.9179 42.049C48.8212 41.1529 46.5279 40.1698 44.4501 40.1698C42.6559 40.1698 40.9185 40.9884 39.181 41.8051C37.3036 42.6881 35.4262 43.5729 33.3409 43.5729C31.2556 43.5729 29.3782 42.69 27.5008 41.8051C25.7633 40.9865 24.024 40.1698 22.2317 40.1698C20.4375 40.1698 18.7 40.9884 16.9626 41.8051C15.0852 42.6881 13.2078 43.5729 11.1225 43.5729C9.03712 43.5729 7.15974 42.69 5.28237 41.8051C3.5449 40.9865 1.80554 40.1698 0.0132418 40.1698V38.8293H0.00946045Z"></path>
  <path fill-rule="evenodd" clip-rule="evenodd" d="M49.7419 20.2201C47.9931 14.9113 45.7244 13.5084 43.5312 12.5442C39.4494 10.7481 34.8155 11.9298 30.0191 7.2524C32.9495 9.43416 36.3621 10.0618 39.0883 10.508C40.8315 10.7935 42.688 11.0469 44.227 11.718C47.4637 13.1303 49.7419 15.7866 49.7419 20.2201Z"></path>
  <path fill-rule="evenodd" clip-rule="evenodd" d="M50.4755 14.153C48.566 12.0071 46.7945 10.039 43.7506 9.26576C40.4836 8.43578 36.8045 9.03321 33.6736 7.20499C35.9197 8.51708 39.7406 7.97825 42.3005 8.22214C46.4277 8.61161 48.6151 10.9295 50.4755 14.153Z"></path>
  <path fill-rule="evenodd" clip-rule="evenodd" d="M51.054 9.55136C51.9918 8.25062 53.1828 7.21078 54.5063 6.43942C56.2513 5.42227 58.2308 4.87021 60.1573 4.7908C61.3219 4.74354 62.5659 4.78324 63.8383 4.82483C66.0106 4.89479 68.2699 4.96852 70.2702 4.59418C71.2117 4.41835 72.1381 4.00809 72.9586 3.51275C74.0155 2.87373 74.8757 2.10614 75.3502 1.52005L76.5791 0.00189246L76.5356 1.953C76.5016 3.4428 76.2029 5.18027 75.2235 6.90261C74.2499 8.61362 72.6107 10.3 69.9053 11.6953C69.0583 12.132 67.9334 12.6803 66.678 13.2267C65.7119 13.6464 64.6702 14.0661 63.619 14.4329C63.0518 14.6295 62.5357 14.7978 62.0233 14.9642C60.0873 15.5937 58.2062 16.2044 56.7504 17.2991C56.2721 17.6602 55.9148 18.0799 55.652 18.5261C55.3419 19.0536 55.1642 19.6245 55.0715 20.1785C55.0281 20.4469 55.0867 22.2317 55.132 23.5816C55.1434 23.9219 55.1547 24.2357 55.1623 24.5174L55.1736 24.8785C54.6859 24.7821 54.1489 24.6138 53.578 24.4021C52.7385 24.1185 51.8462 23.7366 50.9179 23.3396C50.6986 23.245 50.4755 23.1392 50.2524 23.0238C49.2201 22.5966 48.1538 22.1901 47.0837 21.9122L47.1045 21.5851C47.1518 20.8364 47.0818 19.9251 46.7264 19.0649C46.4598 18.4202 46.0288 17.7982 45.3614 17.2972C43.9056 16.2025 42.0226 15.59 40.0885 14.9623C39.5761 14.7959 39.06 14.6276 38.4928 14.431C37.4416 14.0661 36.3999 13.6464 35.4338 13.2248C34.1784 12.6784 33.0535 12.1301 32.2065 11.6934C29.5011 10.2981 27.8619 8.61172 26.8882 6.90072C25.9089 5.17838 25.6083 3.44091 25.5762 1.95111L25.5327 0L26.7616 1.51816C27.2361 2.10425 28.0945 2.87184 29.1532 3.51086C29.9718 4.0062 30.9001 4.41646 31.8416 4.59229C33.84 4.96663 36.0993 4.8929 38.2735 4.82295C39.5459 4.78135 40.7899 4.74165 41.9545 4.78891C43.881 4.86832 45.8605 5.42038 47.6055 6.43752C48.9252 7.21078 50.1163 8.25062 51.054 9.55136ZM48.4487 20.9158C49.4697 21.2694 50.4736 21.7004 51.4397 22.1126C52.2602 22.4642 53.0486 22.8007 53.7784 23.0616C53.7368 21.7609 53.6971 20.3051 53.7519 19.9667C53.8672 19.2672 54.0979 18.5393 54.4987 17.8549C54.8447 17.265 55.3154 16.7092 55.9469 16.2347C57.5861 15.002 59.5693 14.3573 61.6074 13.6956C62.1462 13.5197 62.6907 13.3439 63.1766 13.1738C64.1918 12.8202 65.2033 12.4137 66.1411 12.0054C67.3605 11.4741 68.459 10.9391 69.2908 10.5099C71.7373 9.24886 73.2025 7.7515 74.0589 6.24468C74.5448 5.39013 74.8379 4.5299 75.0061 3.70559C74.5997 4.03456 74.1421 4.36164 73.6487 4.66035C72.7109 5.22754 71.6333 5.70208 70.5159 5.91005C68.3796 6.30896 66.0428 6.23334 63.7967 6.1615C62.5508 6.12179 61.3332 6.08209 60.2083 6.12746C58.4954 6.19742 56.7315 6.69087 55.1755 7.59836C54.0071 8.27898 52.956 9.19592 52.1317 10.3416C51.7214 10.9107 51.555 11.1962 51.0521 11.718C50.5228 11.1678 50.3356 10.8313 49.8988 10.2395C49.0859 9.14109 48.0631 8.26007 46.9306 7.59836C45.3727 6.69087 43.6107 6.19742 41.8978 6.12746C40.7748 6.08209 39.5553 6.12179 38.3094 6.1615C36.0634 6.23523 33.7266 6.31085 31.5902 5.91005C30.4728 5.70019 29.3971 5.22754 28.4575 4.66035C27.964 4.36164 27.5065 4.03645 27.1 3.70559C27.2683 4.5299 27.5613 5.39013 28.0472 6.24468C28.9036 7.7515 30.3707 9.24886 32.8153 10.5099C33.6472 10.9391 34.7456 11.4741 35.9651 12.0054C36.9028 12.4137 37.9143 12.8202 38.9295 13.1738C39.4173 13.3439 39.9599 13.5197 40.4987 13.6956C42.5387 14.3573 44.5201 15.002 46.1592 16.2347C47.0402 16.8964 47.6074 17.7131 47.9591 18.562C48.288 19.3561 48.4242 20.1747 48.4487 20.9158Z"></path>
  <path fill-rule="evenodd" clip-rule="evenodd" d="M52.3661 20.2201C54.1149 14.9113 56.3837 13.5084 58.5768 12.5442C62.6586 10.7481 67.2925 11.9298 72.089 7.2524C69.1585 9.43416 65.746 10.0618 63.0197 10.508C61.2766 10.7935 59.42 11.0469 57.881 11.718C54.6443 13.1303 52.3661 15.7866 52.3661 20.2201Z"></path>
  <path fill-rule="evenodd" clip-rule="evenodd" d="M51.6326 14.153C53.5421 12.0071 55.3136 10.039 58.3575 9.26576C61.6244 8.43578 65.3036 9.03321 68.4344 7.20499C66.1884 8.51708 62.3675 7.97825 59.8076 8.22214C55.6804 8.61161 53.4929 10.9295 51.6326 14.153Z"></path>
  <path fill-rule="evenodd" clip-rule="evenodd" d="M49.7419 20.2201C47.9931 14.9113 45.7244 13.5084 43.5312 12.5442C39.4494 10.7481 34.8155 11.9298 30.0191 7.2524C32.9495 9.43416 36.3621 10.0618 39.0883 10.508C40.8315 10.7935 42.688 11.0469 44.227 11.718C47.4637 13.1303 49.7419 15.7866 49.7419 20.2201Z"></path>
  <path fill-rule="evenodd" clip-rule="evenodd" d="M50.4755 14.153C48.566 12.0071 46.7945 10.039 43.7506 9.26576C40.4836 8.43578 36.8045 9.03321 33.6736 7.20499C35.9197 8.51708 39.7406 7.97825 42.3005 8.22214C46.4277 8.61161 48.6151 10.9295 50.4755 14.153Z"></path>
  <path d="M99.9962 65.9747H0V67.3152H99.9962V65.9747Z"></path>
</svg>